<?xml version="1.0" encoding="iso-8859-1"?>
<!-- Generator: Adobe Illustrator 19.0.0, SVG Export Plug-In . SVG Version: 6.00 Build 0)  -->
<svg version="1.1" id="Capa_1" xmlns="http://www.w3.org/2000/svg" xmlns:xlink="http://www.w3.org/1999/xlink" x="0px" y="0px"
	 viewBox="0 0 407.4 407.4" style="enable-background:new 0 0 407.4 407.4;" xml:space="preserve">
<g>
	<g>
		<path d="M273.6,176.6c-2.1-2-5-2.8-7.8-2.1l-95.6,19.3c-4.9,1-8.4,5.4-8.3,10.4v74.2c-3.7-1.4-7.6-2.1-11.5-2.1
			c-18.2-0.3-33.1,14.2-33.4,32.4c-0.3,18.2,14.2,33.1,32.4,33.4c18.2,0.3,33.1-14.2,33.4-32.4c0-0.3,0-0.7,0-1v-55.9l73.1-15.2
			v21.9c0-1-6.8-2.1-11-2.1c-17.9,0.3-32.2,15-31.9,32.9c0.3,18,14.9,32.4,32.9,32.4c18.3-0.6,31.1-15.7,30.8-34v-1.6V184.4
			C277,181.4,275.9,178.5,273.6,176.6z M151.4,321.1c-0.1-0.1-0.3-0.1-0.5,0c-6.6,0.7-12.8-3.1-14.2-9.6c-1.4-6.5,2.8-12.9,9.3-14.2
			c1.6-0.3,3.4-0.7,5-0.5c6.3,0.7,11.4,5.6,11.4,12C162.7,315.1,157.7,320.8,151.4,321.1z M182.8,231.4v-18.8l73.1-15.2v18.8
			L182.8,231.4z M247,301.9c-0.3,0-0.6,0-1,0c-6.3,0-11.5-5.1-11.5-11.5c-0.3-6.6,4.9-12.2,11.5-12.5c6.6-0.3,12.2,4.9,12.5,11.5
			C258.8,296,253.6,301.6,247,301.9z"/>
	</g>
</g>
<g>
	<g>
		<path d="M362.5,113.3L251.8,3.1c-1.9-2-4.6-3.1-7.3-3.1H94C65.1,0,41.8,23.4,41.8,52.2v303c0,28.9,23.4,52.2,52.2,52.2h219.4
			c28.9,0,52.2-23.4,52.2-52.2V120.6C365.6,117.8,364.4,115.2,362.5,113.3z M256,104.4V36.599l73.6,73.001h-68.4
			c-2.6,0.3-4.9-1.5-5.2-4.1C256,105.1,256,104.8,256,104.4z M344.8,355.2c0,17.3-14,31.3-31.3,31.3H94c-17.3,0-31.3-14-31.3-31.3
			v-303c0-17.3,14-31.3,31.3-31.3h141.1v83.6c0,14.4,11.7,26.1,26.1,26.1h83.6V355.2z"/>
	</g>
</g>
<g>
</g>
<g>
</g>
<g>
</g>
<g>
</g>
<g>
</g>
<g>
</g>
<g>
</g>
<g>
</g>
<g>
</g>
<g>
</g>
<g>
</g>
<g>
</g>
<g>
</g>
<g>
</g>
<g>
</g>
</svg>
