<svg id="Capa_1" enable-background="new 0 0 512 512" height="512" viewBox="0 0 512 512" width="512" xmlns="http://www.w3.org/2000/svg"><g><path d="m271 482h155c19.33 0 35-15.67 35-35v-47.125c0-8.077 6.207-15.027 14.275-15.407 8.614-.406 15.725 6.458 15.725 14.983v47.549c0 35.898-29.102 65-65 65h-155c-8.284 0-15-6.716-15-15 0-8.284 6.716-15 15-15z" fill="#d82e3d"/><path d="m476 305.547c-8.284 0-15-6.716-15-15v-55.547c0-113.037-91.963-205-205-205s-205 91.962-205 205v55.548c0 8.284-6.716 15-15 15s-15-6.716-15-15v-55.548c0-62.771 24.444-121.784 68.83-166.169 44.386-44.387 103.399-68.831 166.17-68.831s121.784 24.444 166.17 68.83c44.386 44.385 68.83 103.399 68.83 166.17v55.548c0 8.284-6.716 14.999-15 14.999z" fill="#dd636e"/><path d="m461 235v55.548c0 8.284 6.716 15 15 15s15-6.716 15-15v-55.548c0-62.771-24.444-121.784-68.83-166.169-44.386-44.387-103.399-68.831-166.17-68.831v30c113.037 0 205 91.962 205 205z" fill="#d82e3d"/><path d="m316 230c-8.284 0-15-6.716-15-15v-80c0-8.284 6.716-15 15-15s15 6.716 15 15v80c0 8.284-6.716 15-15 15z" fill="#665e66"/><path d="m376 210c-8.284 0-15-6.716-15-15v-40c0-8.284 6.716-15 15-15s15 6.716 15 15v40c0 8.284-6.716 15-15 15z" fill="#665e66"/><g fill="#756e78"><path d="m136 210c-8.284 0-15-6.716-15-15v-40c0-8.284 6.716-15 15-15s15 6.716 15 15v40c0 8.284-6.716 15-15 15z"/><path d="m196 230c-8.284 0-15-6.716-15-15v-80c0-8.284 6.716-15 15-15s15 6.716 15 15v80c0 8.284-6.716 15-15 15z"/><path d="m256 250c-8.284 0-15-6.716-15-15v-120c0-8.284 6.716-15 15-15s15 6.716 15 15v120c0 8.284-6.716 15-15 15z"/></g><path d="m271 235v-120c0-8.284-6.716-15-15-15v150c8.284 0 15-6.716 15-15z" fill="#665e66"/><path d="m76 420h-20c-30.327 0-55-24.673-55-55v-40c0-30.327 24.673-55 55-55h20c8.284 0 15 6.716 15 15v120c0 8.284-6.716 15-15 15z" fill="#4687f0"/><path d="m456 420h-20c-8.284 0-15-6.716-15-15v-120c0-8.284 6.716-15 15-15h20c30.327 0 55 24.673 55 55v40c0 30.327-24.673 55-55 55z" fill="#3964d2"/><path d="m406 450c-24.813 0-45-20.187-45-45v-120c0-24.813 20.187-45 45-45s45 20.187 45 45v120c0 24.813-20.187 45-45 45z" fill="#4687f0"/><path d="m106 450c-24.813 0-45-20.187-45-45v-120c0-24.813 20.187-45 45-45s45 20.187 45 45v120c0 24.813-20.187 45-45 45z" fill="#78a0ff"/></g></svg>