<?xml version="1.0" encoding="iso-8859-1"?>
<!-- Generator: Adobe Illustrator 19.0.0, SVG Export Plug-In . SVG Version: 6.00 Build 0)  -->
<svg fill="#FFFFFF" version="1.1" id="Capa_1" xmlns="http://www.w3.org/2000/svg" xmlns:xlink="http://www.w3.org/1999/xlink" x="0px" y="0px"
	 viewBox="0 0 384 384" style="enable-background:new 0 0 384 384;" xml:space="preserve">
<g>
	<g>
		<path d="M64,0v80H0v144h64v160h224l96-96V0H64z M16,208V96h240v112H16z M288,361.376V288h73.376L288,361.376z M368,272h-96v96H80
			V224h192V80H80V16h288V272z"/>
	</g>
</g>
<g>
	<g>
		<polygon points="94.768,117.856 87.168,168.544 86.976,168.544 78.912,117.856 65.664,117.856 57.6,168.544 57.408,168.544 
			49.808,117.856 36.56,117.856 49.056,186.4 64.512,186.4 72.192,136.672 72.384,136.672 80.064,186.4 95.52,186.4 108,117.856 		
			"/>
	</g>
</g>
<g>
	<g>
		<path d="M148.032,117.856l-17.088,0L112.8,186.4h14.384l3.2-14.496h18.224l3.184,14.496h14.384L148.032,117.856z M132.768,160.576
			l6.624-30.816h0.192l6.624,30.816H132.768z"/>
	</g>
</g>
<g>
	<g>
		<polygon points="205.264,117.856 195.072,168.544 194.784,168.544 185.136,117.856 170.352,117.856 186.08,186.4 203.84,186.4 
			219.584,117.856 		"/>
	</g>
</g>
<g>
</g>
<g>
</g>
<g>
</g>
<g>
</g>
<g>
</g>
<g>
</g>
<g>
</g>
<g>
</g>
<g>
</g>
<g>
</g>
<g>
</g>
<g>
</g>
<g>
</g>
<g>
</g>
<g>
</g>
</svg>
